<mxfile host="app.diagrams.net" agent="Mozilla/5.0 (Macintosh; Intel Mac OS X 10_15_7) AppleWebKit/537.36 (KHTML, like Gecko) Chrome/132.0.0.0 YaBrowser/25.2.0.0 Safari/537.36" version="26.2.14" pages="2">
  <diagram name="Лист1" id="x5ziAsaNnClO4zRs3F9P">
    <mxGraphModel dx="4007" dy="2617" grid="1" gridSize="10" guides="1" tooltips="1" connect="1" arrows="1" fold="1" page="1" pageScale="1" pageWidth="3300" pageHeight="2339" math="0" shadow="0">
      <root>
        <mxCell id="0" />
        <mxCell id="1" parent="0" />
        <mxCell id="kFYverO4tarZtgFE3sbo-1" value="" style="group;fontSize=14;spacingTop=1.9685;movable=0;resizable=0;rotatable=0;deletable=0;editable=0;locked=1;connectable=0;" vertex="1" connectable="0" parent="1">
          <mxGeometry x="78.74" y="17.7165" width="3212.6" height="2302.3576" as="geometry" />
        </mxCell>
        <mxCell id="kFYverO4tarZtgFE3sbo-2" value="" style="endArrow=none;html=1;rounded=0;strokeWidth=3.1496;jumpSize=1.9685;jumpStyle=gap;endSize=0;strokeColor=default;" edge="1" parent="kFYverO4tarZtgFE3sbo-1">
          <mxGeometry width="50" height="50" relative="1" as="geometry">
            <mxPoint as="sourcePoint" />
            <mxPoint y="2302.3576" as="targetPoint" />
          </mxGeometry>
        </mxCell>
        <mxCell id="kFYverO4tarZtgFE3sbo-3" value="" style="endArrow=none;html=1;rounded=0;strokeWidth=3.1496;" edge="1" parent="kFYverO4tarZtgFE3sbo-1">
          <mxGeometry width="50" height="50" relative="1" as="geometry">
            <mxPoint x="3212.592" as="sourcePoint" />
            <mxPoint x="3212.592" y="2302.3576" as="targetPoint" />
          </mxGeometry>
        </mxCell>
        <mxCell id="kFYverO4tarZtgFE3sbo-4" value="" style="endArrow=none;html=1;rounded=0;strokeWidth=3.1496;" edge="1" parent="kFYverO4tarZtgFE3sbo-1">
          <mxGeometry width="50" height="50" relative="1" as="geometry">
            <mxPoint y="1.5747999999999998" as="sourcePoint" />
            <mxPoint x="3212.592" y="1.5747999999999998" as="targetPoint" />
          </mxGeometry>
        </mxCell>
        <mxCell id="kFYverO4tarZtgFE3sbo-5" value="" style="endArrow=none;html=1;rounded=0;strokeWidth=3.1496;" edge="1" parent="kFYverO4tarZtgFE3sbo-1">
          <mxGeometry width="50" height="50" relative="1" as="geometry">
            <mxPoint y="2300.7828" as="sourcePoint" />
            <mxPoint x="3212.592" y="2300.7828" as="targetPoint" />
          </mxGeometry>
        </mxCell>
        <mxCell id="kFYverO4tarZtgFE3sbo-6" value="" style="endArrow=none;html=1;rounded=0;strokeWidth=3.1496;startSize=0;" edge="1" parent="kFYverO4tarZtgFE3sbo-1">
          <mxGeometry width="50" height="50" relative="1" as="geometry">
            <mxPoint x="2484.2470000000003" y="2084.2477999999996" as="sourcePoint" />
            <mxPoint x="3212.592" y="2084.2477999999996" as="targetPoint" />
          </mxGeometry>
        </mxCell>
        <mxCell id="kFYverO4tarZtgFE3sbo-7" value="" style="endArrow=none;html=1;rounded=0;strokeWidth=3.1496;startSize=0;" edge="1" parent="kFYverO4tarZtgFE3sbo-1">
          <mxGeometry width="50" height="50" relative="1" as="geometry">
            <mxPoint x="2484.2470000000003" y="2082.673" as="sourcePoint" />
            <mxPoint x="2484.2470000000003" y="2300.8898" as="targetPoint" />
          </mxGeometry>
        </mxCell>
        <mxCell id="kFYverO4tarZtgFE3sbo-8" value="" style="endArrow=none;html=1;rounded=0;strokeWidth=3.1496;startSize=0;" edge="1" parent="kFYverO4tarZtgFE3sbo-1">
          <mxGeometry width="50" height="50" relative="1" as="geometry">
            <mxPoint x="2740.152" y="2143.3028" as="sourcePoint" />
            <mxPoint x="3212.592" y="2143.3028" as="targetPoint" />
          </mxGeometry>
        </mxCell>
        <mxCell id="kFYverO4tarZtgFE3sbo-9" value="" style="endArrow=none;html=1;rounded=0;strokeWidth=3.1496;startSize=0;" edge="1" parent="kFYverO4tarZtgFE3sbo-1">
          <mxGeometry width="50" height="50" relative="1" as="geometry">
            <mxPoint x="2740.152" y="2084.2477999999996" as="sourcePoint" />
            <mxPoint x="2740.152" y="2300.8898" as="targetPoint" />
          </mxGeometry>
        </mxCell>
        <mxCell id="kFYverO4tarZtgFE3sbo-10" value="" style="endArrow=none;html=1;rounded=0;strokeWidth=3.1496;startSize=0;" edge="1" parent="kFYverO4tarZtgFE3sbo-1">
          <mxGeometry width="50" height="50" relative="1" as="geometry">
            <mxPoint x="2740.152" y="2241.7277999999997" as="sourcePoint" />
            <mxPoint x="3212.592" y="2241.7277999999997" as="targetPoint" />
          </mxGeometry>
        </mxCell>
        <mxCell id="kFYverO4tarZtgFE3sbo-11" value="" style="endArrow=none;html=1;rounded=0;strokeWidth=3.1496;startSize=0;" edge="1" parent="kFYverO4tarZtgFE3sbo-1">
          <mxGeometry width="50" height="50" relative="1" as="geometry">
            <mxPoint x="3015.742" y="2222.0427999999997" as="sourcePoint" />
            <mxPoint x="3212.592" y="2222.0427999999997" as="targetPoint" />
          </mxGeometry>
        </mxCell>
        <mxCell id="kFYverO4tarZtgFE3sbo-12" value="" style="endArrow=none;html=1;rounded=0;strokeWidth=3.1496;startSize=0;" edge="1" parent="kFYverO4tarZtgFE3sbo-1">
          <mxGeometry width="50" height="50" relative="1" as="geometry">
            <mxPoint x="3015.742" y="2162.9878" as="sourcePoint" />
            <mxPoint x="3212.592" y="2162.9878" as="targetPoint" />
          </mxGeometry>
        </mxCell>
        <mxCell id="kFYverO4tarZtgFE3sbo-13" value="" style="endArrow=none;html=1;rounded=0;strokeWidth=3.1496;startSize=0;" edge="1" parent="kFYverO4tarZtgFE3sbo-1">
          <mxGeometry width="50" height="50" relative="1" as="geometry">
            <mxPoint x="3015.742" y="2143.3028" as="sourcePoint" />
            <mxPoint x="3015.26" y="2301.2835" as="targetPoint" />
          </mxGeometry>
        </mxCell>
        <mxCell id="kFYverO4tarZtgFE3sbo-14" value="" style="endArrow=none;html=1;rounded=0;strokeWidth=3.1496;startSize=0;" edge="1" parent="kFYverO4tarZtgFE3sbo-1">
          <mxGeometry width="50" height="50" relative="1" as="geometry">
            <mxPoint x="3074.797" y="2143.3028" as="sourcePoint" />
            <mxPoint x="3074.797" y="2222.0427999999997" as="targetPoint" />
          </mxGeometry>
        </mxCell>
        <mxCell id="kFYverO4tarZtgFE3sbo-15" value="" style="endArrow=none;html=1;rounded=0;strokeWidth=3.1496;startSize=0;" edge="1" parent="kFYverO4tarZtgFE3sbo-1">
          <mxGeometry width="50" height="50" relative="1" as="geometry">
            <mxPoint x="3141.726" y="2143.3028" as="sourcePoint" />
            <mxPoint x="3141.726" y="2222.0427999999997" as="targetPoint" />
          </mxGeometry>
        </mxCell>
        <mxCell id="kFYverO4tarZtgFE3sbo-16" value="" style="endArrow=none;html=1;rounded=0;strokeWidth=3.1496;startSize=0;" edge="1" parent="kFYverO4tarZtgFE3sbo-1">
          <mxGeometry width="50" height="50" relative="1" as="geometry">
            <mxPoint x="3094.482" y="2222.0398" as="sourcePoint" />
            <mxPoint x="3094.482" y="2241.8898" as="targetPoint" />
          </mxGeometry>
        </mxCell>
        <mxCell id="kFYverO4tarZtgFE3sbo-17" value="" style="endArrow=none;html=1;rounded=0;strokeWidth=3.1496;startSize=0;" edge="1" parent="kFYverO4tarZtgFE3sbo-1">
          <mxGeometry width="50" height="50" relative="1" as="geometry">
            <mxPoint x="2700.782" y="2084.2447999999995" as="sourcePoint" />
            <mxPoint x="2700.782" y="2300.8867999999998" as="targetPoint" />
          </mxGeometry>
        </mxCell>
        <mxCell id="kFYverO4tarZtgFE3sbo-18" value="" style="endArrow=none;html=1;rounded=0;strokeWidth=3.1496;startSize=0;" edge="1" parent="kFYverO4tarZtgFE3sbo-1">
          <mxGeometry width="50" height="50" relative="1" as="geometry">
            <mxPoint x="2641.7270000000003" y="2084.2517999999995" as="sourcePoint" />
            <mxPoint x="2641.7270000000003" y="2300.8938" as="targetPoint" />
          </mxGeometry>
        </mxCell>
        <mxCell id="kFYverO4tarZtgFE3sbo-19" value="" style="endArrow=none;html=1;rounded=0;strokeWidth=3.1496;startSize=0;" edge="1" parent="kFYverO4tarZtgFE3sbo-1">
          <mxGeometry width="50" height="50" relative="1" as="geometry">
            <mxPoint x="2551.176" y="2084.2487999999994" as="sourcePoint" />
            <mxPoint x="2551.176" y="2300.8907999999997" as="targetPoint" />
          </mxGeometry>
        </mxCell>
        <mxCell id="kFYverO4tarZtgFE3sbo-20" value="" style="endArrow=none;html=1;rounded=0;strokeWidth=3.1496;startSize=0;" edge="1" parent="kFYverO4tarZtgFE3sbo-1">
          <mxGeometry width="50" height="50" relative="1" as="geometry">
            <mxPoint x="2511.806" y="2084.2457999999992" as="sourcePoint" />
            <mxPoint x="2511.806" y="2182.6728" as="targetPoint" />
          </mxGeometry>
        </mxCell>
        <mxCell id="kFYverO4tarZtgFE3sbo-21" value="" style="endArrow=none;html=1;rounded=0;strokeWidth=3.1496;startSize=0;" edge="1" parent="kFYverO4tarZtgFE3sbo-1">
          <mxGeometry width="50" height="50" relative="1" as="geometry">
            <mxPoint x="2484.249" y="2182.6728" as="sourcePoint" />
            <mxPoint x="2740.26" y="2182.6728" as="targetPoint" />
          </mxGeometry>
        </mxCell>
        <mxCell id="kFYverO4tarZtgFE3sbo-22" value="" style="endArrow=none;html=1;rounded=0;strokeWidth=3.1496;startSize=0;" edge="1" parent="kFYverO4tarZtgFE3sbo-1">
          <mxGeometry width="50" height="50" relative="1" as="geometry">
            <mxPoint x="2484.2459999999996" y="2162.9878" as="sourcePoint" />
            <mxPoint x="2740.257" y="2162.9878" as="targetPoint" />
          </mxGeometry>
        </mxCell>
        <mxCell id="kFYverO4tarZtgFE3sbo-23" value="" style="endArrow=none;html=1;rounded=0;strokeWidth=1.1810999999999998;startSize=0;" edge="1" parent="kFYverO4tarZtgFE3sbo-1">
          <mxGeometry width="50" height="50" relative="1" as="geometry">
            <mxPoint x="2484.2429999999995" y="2103.9328" as="sourcePoint" />
            <mxPoint x="2740.254" y="2103.9328" as="targetPoint" />
          </mxGeometry>
        </mxCell>
        <mxCell id="kFYverO4tarZtgFE3sbo-24" value="" style="endArrow=none;html=1;rounded=0;strokeWidth=1.1810999999999998;startSize=0;" edge="1" parent="kFYverO4tarZtgFE3sbo-1">
          <mxGeometry width="50" height="50" relative="1" as="geometry">
            <mxPoint x="2484.2470000000003" y="2123.6178" as="sourcePoint" />
            <mxPoint x="2740.152" y="2123.6178" as="targetPoint" />
          </mxGeometry>
        </mxCell>
        <mxCell id="kFYverO4tarZtgFE3sbo-25" value="" style="endArrow=none;html=1;rounded=0;strokeWidth=1.1810999999999998;startSize=0;" edge="1" parent="kFYverO4tarZtgFE3sbo-1">
          <mxGeometry width="50" height="50" relative="1" as="geometry">
            <mxPoint x="2484.2470000000003" y="2143.3028" as="sourcePoint" />
            <mxPoint x="2740.152" y="2143.3028" as="targetPoint" />
          </mxGeometry>
        </mxCell>
        <mxCell id="kFYverO4tarZtgFE3sbo-26" value="" style="endArrow=none;html=1;rounded=0;strokeWidth=1.1810999999999998;startSize=0;" edge="1" parent="kFYverO4tarZtgFE3sbo-1">
          <mxGeometry width="50" height="50" relative="1" as="geometry">
            <mxPoint x="2484.244" y="2202.3597999999997" as="sourcePoint" />
            <mxPoint x="2740.149" y="2202.3597999999997" as="targetPoint" />
          </mxGeometry>
        </mxCell>
        <mxCell id="kFYverO4tarZtgFE3sbo-27" value="" style="endArrow=none;html=1;rounded=0;strokeWidth=1.1810999999999998;startSize=0;" edge="1" parent="kFYverO4tarZtgFE3sbo-1">
          <mxGeometry width="50" height="50" relative="1" as="geometry">
            <mxPoint x="2484.251" y="2222.0467999999996" as="sourcePoint" />
            <mxPoint x="2740.156" y="2222.0467999999996" as="targetPoint" />
          </mxGeometry>
        </mxCell>
        <mxCell id="kFYverO4tarZtgFE3sbo-28" value="" style="endArrow=none;html=1;rounded=0;strokeWidth=1.1810999999999998;startSize=0;" edge="1" parent="kFYverO4tarZtgFE3sbo-1">
          <mxGeometry width="50" height="50" relative="1" as="geometry">
            <mxPoint x="2484.248" y="2241.7237999999993" as="sourcePoint" />
            <mxPoint x="2740.153" y="2241.7237999999993" as="targetPoint" />
          </mxGeometry>
        </mxCell>
        <mxCell id="kFYverO4tarZtgFE3sbo-29" value="" style="endArrow=none;html=1;rounded=0;strokeWidth=1.1810999999999998;startSize=0;" edge="1" parent="kFYverO4tarZtgFE3sbo-1">
          <mxGeometry width="50" height="50" relative="1" as="geometry">
            <mxPoint x="2484.245" y="2261.410799999999" as="sourcePoint" />
            <mxPoint x="2740.1499999999996" y="2261.410799999999" as="targetPoint" />
          </mxGeometry>
        </mxCell>
        <mxCell id="kFYverO4tarZtgFE3sbo-30" value="" style="endArrow=none;html=1;rounded=0;strokeWidth=1.1810999999999998;startSize=0;" edge="1" parent="kFYverO4tarZtgFE3sbo-1">
          <mxGeometry width="50" height="50" relative="1" as="geometry">
            <mxPoint x="2484.252" y="2281.097799999999" as="sourcePoint" />
            <mxPoint x="2740.1569999999997" y="2281.097799999999" as="targetPoint" />
          </mxGeometry>
        </mxCell>
        <mxCell id="kFYverO4tarZtgFE3sbo-31" value="" style="endArrow=none;html=1;rounded=0;strokeWidth=1.1810999999999998;startSize=0;" edge="1" parent="kFYverO4tarZtgFE3sbo-1">
          <mxGeometry width="50" height="50" relative="1" as="geometry">
            <mxPoint x="3035.26" y="2162.8898" as="sourcePoint" />
            <mxPoint x="3035.427" y="2221.8898" as="targetPoint" />
          </mxGeometry>
        </mxCell>
        <mxCell id="kFYverO4tarZtgFE3sbo-32" value="" style="endArrow=none;html=1;rounded=0;strokeWidth=1.1810999999999998;startSize=0;" edge="1" parent="kFYverO4tarZtgFE3sbo-1">
          <mxGeometry width="50" height="50" relative="1" as="geometry">
            <mxPoint x="3055.26" y="2162.8898" as="sourcePoint" />
            <mxPoint x="3055.114" y="2222.3068" as="targetPoint" />
          </mxGeometry>
        </mxCell>
        <mxCell id="kFYverO4tarZtgFE3sbo-33" value="&lt;font style=&quot;font-size: 14px;&quot; face=&quot;GOST type A&quot;&gt;&lt;i style=&quot;&quot;&gt;Изм.&lt;/i&gt;&lt;/font&gt;" style="text;html=1;align=center;verticalAlign=middle;whiteSpace=wrap;rounded=0;" vertex="1" parent="kFYverO4tarZtgFE3sbo-1">
          <mxGeometry x="2484.25" y="2163.3815" width="27.56" height="18.11" as="geometry" />
        </mxCell>
        <mxCell id="kFYverO4tarZtgFE3sbo-34" value="&lt;font face=&quot;GOST type A&quot;&gt;&lt;i&gt;Лист&lt;/i&gt;&lt;/font&gt;" style="text;html=1;align=center;verticalAlign=middle;whiteSpace=wrap;rounded=0;fontSize=14;" vertex="1" parent="kFYverO4tarZtgFE3sbo-1">
          <mxGeometry x="2511.81" y="2162.99" width="39.37" height="18.11" as="geometry" />
        </mxCell>
        <mxCell id="kFYverO4tarZtgFE3sbo-35" value="&lt;i&gt;&lt;font face=&quot;GOST type A&quot;&gt;&amp;nbsp;№ докум.&lt;/font&gt;&lt;/i&gt;" style="text;html=1;align=left;verticalAlign=middle;whiteSpace=wrap;rounded=0;fontSize=14;" vertex="1" parent="kFYverO4tarZtgFE3sbo-1">
          <mxGeometry x="2551.18" y="2162.99" width="90.55" height="18.11" as="geometry" />
        </mxCell>
        <mxCell id="kFYverO4tarZtgFE3sbo-36" value="&lt;font face=&quot;GOST type A&quot;&gt;&lt;i&gt;Подпись&lt;/i&gt;&lt;/font&gt;" style="text;html=1;align=center;verticalAlign=middle;whiteSpace=wrap;rounded=0;fontSize=14;" vertex="1" parent="kFYverO4tarZtgFE3sbo-1">
          <mxGeometry x="2641.73" y="2162.99" width="59.05" height="18.11" as="geometry" />
        </mxCell>
        <mxCell id="kFYverO4tarZtgFE3sbo-37" value="&lt;font face=&quot;GOST type A&quot;&gt;&lt;i&gt;Дата&lt;/i&gt;&lt;/font&gt;" style="text;html=1;align=center;verticalAlign=middle;whiteSpace=wrap;rounded=0;fontSize=14;" vertex="1" parent="kFYverO4tarZtgFE3sbo-1">
          <mxGeometry x="2700.78" y="2162.99" width="39.38" height="18.11" as="geometry" />
        </mxCell>
        <mxCell id="kFYverO4tarZtgFE3sbo-38" value="&lt;font face=&quot;GOST type A&quot;&gt;&lt;i&gt;Разработ.&lt;/i&gt;&lt;/font&gt;&lt;span style=&quot;color: rgba(0, 0, 0, 0); font-family: monospace; font-size: 0px; text-align: start; text-wrap-mode: nowrap;&quot;&gt;%3CmxGraphModel%3E%3Croot%3E%3CmxCell%20id%3D%220%22%2F%3E%3CmxCell%20id%3D%221%22%20parent%3D%220%22%2F%3E%3CmxCell%20id%3D%222%22%20value%3D%22%26lt%3Bfont%20face%3D%26quot%3BGOST%20type%20A%26quot%3B%26gt%3B%26lt%3Bi%26gt%3B%D0%9B%D0%B8%D1%81%D1%82%26lt%3B%2Fi%26gt%3B%26lt%3B%2Ffont%26gt%3B%22%20style%3D%22text%3Bhtml%3D1%3Balign%3Dcenter%3BverticalAlign%3Dmiddle%3BwhiteSpace%3Dwrap%3Brounded%3D0%3BfontSize%3D14%3B%22%20vertex%3D%221%22%20parent%3D%221%22%3E%3CmxGeometry%20x%3D%222590.5499999999997%22%20y%3D%222180.7065%22%20width%3D%2239.37%22%20height%3D%2218.11%22%20as%3D%22geometry%22%2F%3E%3C%2FmxCell%3E%3C%2Froot%3E%3C%2FmxGraphModel%3E&lt;/span&gt;" style="text;html=1;align=center;verticalAlign=middle;whiteSpace=wrap;rounded=0;fontSize=14;" vertex="1" parent="kFYverO4tarZtgFE3sbo-1">
          <mxGeometry x="2484.25" y="2183.07" width="66.93" height="18.11" as="geometry" />
        </mxCell>
        <mxCell id="kFYverO4tarZtgFE3sbo-39" value="&lt;font face=&quot;GOST type A&quot;&gt;&lt;i&gt;Проверил&lt;/i&gt;&lt;/font&gt;" style="text;html=1;align=center;verticalAlign=middle;whiteSpace=wrap;rounded=0;fontSize=14;" vertex="1" parent="kFYverO4tarZtgFE3sbo-1">
          <mxGeometry x="2484.247" y="2202.747" width="66.93" height="18.11" as="geometry" />
        </mxCell>
        <mxCell id="kFYverO4tarZtgFE3sbo-40" value="&lt;font face=&quot;GOST type A&quot;&gt;&lt;i&gt;Н. контр.&lt;/i&gt;&lt;/font&gt;" style="text;html=1;align=center;verticalAlign=middle;whiteSpace=wrap;rounded=0;fontSize=14;" vertex="1" parent="kFYverO4tarZtgFE3sbo-1">
          <mxGeometry x="2484.2439999999997" y="2222.4339999999997" width="66.93" height="18.11" as="geometry" />
        </mxCell>
        <mxCell id="kFYverO4tarZtgFE3sbo-41" value="&lt;font face=&quot;GOST type A&quot;&gt;&lt;i&gt;Лит.&lt;/i&gt;&lt;/font&gt;" style="text;html=1;align=center;verticalAlign=middle;whiteSpace=wrap;rounded=0;fontSize=14;" vertex="1" parent="kFYverO4tarZtgFE3sbo-1">
          <mxGeometry x="3015.74" y="2144.88" width="59.06" height="18.11" as="geometry" />
        </mxCell>
        <mxCell id="kFYverO4tarZtgFE3sbo-42" value="&lt;font face=&quot;GOST type A&quot;&gt;&lt;i&gt;Масса&lt;/i&gt;&lt;/font&gt;" style="text;html=1;align=center;verticalAlign=middle;whiteSpace=wrap;rounded=0;fontSize=14;" vertex="1" parent="kFYverO4tarZtgFE3sbo-1">
          <mxGeometry x="3074.8" y="2144.88" width="66.93" height="18.11" as="geometry" />
        </mxCell>
        <mxCell id="kFYverO4tarZtgFE3sbo-43" value="&lt;font face=&quot;GOST type A&quot;&gt;&lt;i&gt;Масштаб&lt;/i&gt;&lt;/font&gt;" style="text;html=1;align=center;verticalAlign=middle;whiteSpace=wrap;rounded=0;fontSize=14;" vertex="1" parent="kFYverO4tarZtgFE3sbo-1">
          <mxGeometry x="3141.73" y="2144.88" width="70.86" height="18.11" as="geometry" />
        </mxCell>
        <mxCell id="kFYverO4tarZtgFE3sbo-44" value="&lt;font style=&quot;font-size: 25px;&quot; face=&quot;GOST type A&quot;&gt;&lt;i style=&quot;&quot;&gt;1:1&lt;/i&gt;&lt;/font&gt;" style="text;html=1;align=center;verticalAlign=middle;whiteSpace=wrap;rounded=0;fontSize=14;spacingTop=1.9685;spacingRight=1.9685;spacingLeft=-1.9685;" vertex="1" parent="kFYverO4tarZtgFE3sbo-1">
          <mxGeometry x="3141.73" y="2162.99" width="70.86" height="57.48" as="geometry" />
        </mxCell>
        <mxCell id="kFYverO4tarZtgFE3sbo-45" value="&lt;font face=&quot;GOST type A&quot;&gt;&lt;i&gt;Лист&lt;/i&gt;&lt;/font&gt;" style="text;html=1;align=right;verticalAlign=middle;whiteSpace=wrap;rounded=0;fontSize=14;" vertex="1" parent="kFYverO4tarZtgFE3sbo-1">
          <mxGeometry x="3015.74" y="2222.44" width="43.31" height="18.11" as="geometry" />
        </mxCell>
        <mxCell id="kFYverO4tarZtgFE3sbo-46" value="&lt;font face=&quot;GOST type A&quot;&gt;&lt;i&gt;1&lt;/i&gt;&lt;/font&gt;" style="text;html=1;align=left;verticalAlign=middle;whiteSpace=wrap;rounded=0;fontSize=14;spacingTop=1.9685;" vertex="1" parent="kFYverO4tarZtgFE3sbo-1">
          <mxGeometry x="3059.05" y="2222.44" width="35.44" height="18.11" as="geometry" />
        </mxCell>
        <mxCell id="kFYverO4tarZtgFE3sbo-47" value="&lt;font face=&quot;GOST type A&quot;&gt;&lt;i&gt;Листов 10&lt;/i&gt;&lt;/font&gt;" style="text;html=1;align=center;verticalAlign=middle;whiteSpace=wrap;rounded=0;fontSize=14;spacingTop=1.9685;" vertex="1" parent="kFYverO4tarZtgFE3sbo-1">
          <mxGeometry x="3094.49" y="2222.44" width="118.11" height="18.11" as="geometry" />
        </mxCell>
        <mxCell id="kFYverO4tarZtgFE3sbo-48" value="&lt;font style=&quot;font-size: 18px;&quot; face=&quot;GOST type A&quot;&gt;&lt;i style=&quot;&quot;&gt;МГТУ им. Н.Э. Баумана&lt;/i&gt;&lt;/font&gt;&lt;div&gt;&lt;font style=&quot;font-size: 18px;&quot; face=&quot;GOST type A&quot;&gt;&lt;i style=&quot;&quot;&gt;кафедра ИУ6&lt;/i&gt;&lt;/font&gt;&lt;/div&gt;" style="text;html=1;align=center;verticalAlign=middle;whiteSpace=wrap;rounded=0;fontSize=14;spacingTop=1.9685;" vertex="1" parent="kFYverO4tarZtgFE3sbo-1">
          <mxGeometry x="3015.74" y="2242.12" width="196.86" height="57.09" as="geometry" />
        </mxCell>
        <mxCell id="kFYverO4tarZtgFE3sbo-49" value="&lt;font face=&quot;GOST type A&quot;&gt;&lt;i&gt;Насибуллин Д.И.&lt;/i&gt;&lt;/font&gt;" style="text;html=1;align=center;verticalAlign=middle;whiteSpace=wrap;rounded=0;fontSize=14;" vertex="1" parent="kFYverO4tarZtgFE3sbo-1">
          <mxGeometry x="2551.18" y="2183.07" width="90.55" height="18.11" as="geometry" />
        </mxCell>
        <mxCell id="kFYverO4tarZtgFE3sbo-50" value="&lt;font face=&quot;GOST type A&quot;&gt;&lt;i&gt;Гуренко В.В.&lt;/i&gt;&lt;/font&gt;" style="text;html=1;align=center;verticalAlign=middle;whiteSpace=wrap;rounded=0;fontSize=14;" vertex="1" parent="kFYverO4tarZtgFE3sbo-1">
          <mxGeometry x="2551.1769999999997" y="2202.747" width="90.55" height="18.11" as="geometry" />
        </mxCell>
        <mxCell id="kFYverO4tarZtgFE3sbo-51" value="Программная система верификации лизинговой документации" style="text;html=1;align=center;verticalAlign=middle;whiteSpace=wrap;rounded=0;fontFamily=GOST type A;fontSize=100;fontStyle=2" vertex="1" parent="1">
          <mxGeometry x="552.56" y="60" width="2264.96" height="110" as="geometry" />
        </mxCell>
        <mxCell id="kFYverO4tarZtgFE3sbo-52" value="Цель работы" style="text;html=1;align=center;verticalAlign=middle;whiteSpace=wrap;rounded=0;fontFamily=GOST type A;fontSize=80;fontStyle=2" vertex="1" parent="1">
          <mxGeometry x="510" y="220" width="500" height="110" as="geometry" />
        </mxCell>
        <mxCell id="kFYverO4tarZtgFE3sbo-53" value="Основные решаемые задачи" style="text;html=1;align=center;verticalAlign=middle;whiteSpace=wrap;rounded=0;fontFamily=GOST type A;fontSize=85;fontStyle=2" vertex="1" parent="1">
          <mxGeometry x="410" y="930" width="890" height="110" as="geometry" />
        </mxCell>
        <mxCell id="kFYverO4tarZtgFE3sbo-54" value="Схема структурная инфомрационной системы" style="text;html=1;align=center;verticalAlign=middle;whiteSpace=wrap;rounded=0;fontFamily=GOST type A;fontSize=85;fontStyle=2" vertex="1" parent="1">
          <mxGeometry x="280" y="1380" width="1400" height="110" as="geometry" />
        </mxCell>
        <mxCell id="kFYverO4tarZtgFE3sbo-55" value="Программная система верификации лизинговой документации" style="rounded=0;whiteSpace=wrap;html=1;fontSize=28;fontFamily=GOST type A;fontStyle=2" vertex="1" parent="1">
          <mxGeometry x="650" y="1500" width="650" height="50" as="geometry" />
        </mxCell>
        <mxCell id="kFYverO4tarZtgFE3sbo-56" value="Интерфейс" style="rounded=0;whiteSpace=wrap;html=1;fontSize=28;fontFamily=GOST type A;fontStyle=2" vertex="1" parent="1">
          <mxGeometry x="310" y="1650" width="170" height="70" as="geometry" />
        </mxCell>
        <mxCell id="kFYverO4tarZtgFE3sbo-57" value="Сервер" style="rounded=0;whiteSpace=wrap;html=1;fontSize=28;fontFamily=GOST type A;fontStyle=2" vertex="1" parent="1">
          <mxGeometry x="1460" y="1650" width="170" height="70" as="geometry" />
        </mxCell>
        <mxCell id="kFYverO4tarZtgFE3sbo-58" value="Интерфейс администратора" style="rounded=0;whiteSpace=wrap;html=1;fontSize=28;fontFamily=GOST type A;fontStyle=2" vertex="1" parent="1">
          <mxGeometry x="120" y="1820" width="170" height="70" as="geometry" />
        </mxCell>
        <mxCell id="kFYverO4tarZtgFE3sbo-59" value="Интерфейс риск-менеджера" style="rounded=0;whiteSpace=wrap;html=1;fontSize=28;fontFamily=GOST type A;fontStyle=2" vertex="1" parent="1">
          <mxGeometry x="310" y="1820" width="170" height="70" as="geometry" />
        </mxCell>
        <mxCell id="kFYverO4tarZtgFE3sbo-60" value="Интерфейс менеджера" style="rounded=0;whiteSpace=wrap;html=1;fontSize=28;fontFamily=GOST type A;fontStyle=2" vertex="1" parent="1">
          <mxGeometry x="500" y="1820" width="170" height="70" as="geometry" />
        </mxCell>
        <mxCell id="kFYverO4tarZtgFE3sbo-61" value="Гибридная модель машинного обучения" style="rounded=0;whiteSpace=wrap;html=1;fontSize=28;fontFamily=GOST type A;fontStyle=2" vertex="1" parent="1">
          <mxGeometry x="970" y="1820" width="230" height="70" as="geometry" />
        </mxCell>
        <mxCell id="kFYverO4tarZtgFE3sbo-62" value="Система хранения и обработки информации" style="rounded=0;whiteSpace=wrap;html=1;fontSize=28;fontFamily=GOST type A;fontStyle=2" vertex="1" parent="1">
          <mxGeometry x="1730" y="1820" width="260" height="70" as="geometry" />
        </mxCell>
        <mxCell id="kFYverO4tarZtgFE3sbo-63" value="Модуль классификации документов" style="rounded=0;whiteSpace=wrap;html=1;fontSize=28;fontFamily=GOST type A;fontStyle=2" vertex="1" parent="1">
          <mxGeometry x="370" y="1985" width="250" height="70" as="geometry" />
        </mxCell>
        <mxCell id="kFYverO4tarZtgFE3sbo-64" value="Модуль распознавания именованных сущностей" style="rounded=0;whiteSpace=wrap;html=1;fontSize=28;fontFamily=GOST type A;fontStyle=2" vertex="1" parent="1">
          <mxGeometry x="680" y="1985" width="270" height="70" as="geometry" />
        </mxCell>
        <mxCell id="kFYverO4tarZtgFE3sbo-65" value="Модуль верификации" style="rounded=0;whiteSpace=wrap;html=1;fontSize=28;fontFamily=GOST type A;fontStyle=2" vertex="1" parent="1">
          <mxGeometry x="1320" y="1985" width="160" height="70" as="geometry" />
        </mxCell>
        <mxCell id="kFYverO4tarZtgFE3sbo-66" value="Модуль распознавания таблиц" style="rounded=0;whiteSpace=wrap;html=1;fontSize=28;fontFamily=GOST type A;fontStyle=2" vertex="1" parent="1">
          <mxGeometry x="1010" y="1985" width="240" height="70" as="geometry" />
        </mxCell>
        <mxCell id="kFYverO4tarZtgFE3sbo-67" value="База данных" style="rounded=0;whiteSpace=wrap;html=1;fontSize=28;fontFamily=GOST type A;fontStyle=2" vertex="1" parent="1">
          <mxGeometry x="1590" y="1990" width="140" height="60" as="geometry" />
        </mxCell>
        <mxCell id="kFYverO4tarZtgFE3sbo-70" value="Приложение" style="rounded=0;whiteSpace=wrap;html=1;fontSize=28;fontFamily=GOST type A;fontStyle=2" vertex="1" parent="1">
          <mxGeometry x="1990" y="1990" width="140" height="60" as="geometry" />
        </mxCell>
        <mxCell id="kFYverO4tarZtgFE3sbo-71" value="Модуль контроля доступа" style="rounded=0;whiteSpace=wrap;html=1;fontSize=28;fontFamily=GOST type A;fontStyle=2" vertex="1" parent="1">
          <mxGeometry x="1690" y="2140" width="190" height="70" as="geometry" />
        </mxCell>
        <mxCell id="kFYverO4tarZtgFE3sbo-72" value="Модуль обработки данных" style="rounded=0;whiteSpace=wrap;html=1;fontSize=28;fontFamily=GOST type A;fontStyle=2" vertex="1" parent="1">
          <mxGeometry x="1960" y="2140" width="200" height="70" as="geometry" />
        </mxCell>
        <mxCell id="kFYverO4tarZtgFE3sbo-73" value="Модуль взаимодействия с базой данных" style="rounded=0;whiteSpace=wrap;html=1;fontSize=28;fontFamily=GOST type A;fontStyle=2" vertex="1" parent="1">
          <mxGeometry x="2240" y="2140" width="250" height="70" as="geometry" />
        </mxCell>
        <mxCell id="kFYverO4tarZtgFE3sbo-74" value="" style="endArrow=none;html=1;rounded=0;exitX=0.5;exitY=0;exitDx=0;exitDy=0;entryX=0.5;entryY=0;entryDx=0;entryDy=0;" edge="1" parent="1" source="kFYverO4tarZtgFE3sbo-56" target="kFYverO4tarZtgFE3sbo-57">
          <mxGeometry width="50" height="50" relative="1" as="geometry">
            <mxPoint x="940" y="1770" as="sourcePoint" />
            <mxPoint x="990" y="1720" as="targetPoint" />
            <Array as="points">
              <mxPoint x="395" y="1600" />
              <mxPoint x="1545" y="1600" />
            </Array>
          </mxGeometry>
        </mxCell>
        <mxCell id="kFYverO4tarZtgFE3sbo-75" value="" style="endArrow=none;html=1;rounded=0;entryX=0.5;entryY=1;entryDx=0;entryDy=0;" edge="1" parent="1" target="kFYverO4tarZtgFE3sbo-55">
          <mxGeometry width="50" height="50" relative="1" as="geometry">
            <mxPoint x="975" y="1600" as="sourcePoint" />
            <mxPoint x="990" y="1720" as="targetPoint" />
          </mxGeometry>
        </mxCell>
        <mxCell id="kFYverO4tarZtgFE3sbo-76" value="" style="endArrow=none;html=1;rounded=0;exitX=0.5;exitY=0;exitDx=0;exitDy=0;entryX=0.5;entryY=0;entryDx=0;entryDy=0;" edge="1" parent="1" source="kFYverO4tarZtgFE3sbo-58" target="kFYverO4tarZtgFE3sbo-60">
          <mxGeometry width="50" height="50" relative="1" as="geometry">
            <mxPoint x="940" y="1770" as="sourcePoint" />
            <mxPoint x="990" y="1720" as="targetPoint" />
            <Array as="points">
              <mxPoint x="205" y="1760" />
              <mxPoint x="585" y="1760" />
            </Array>
          </mxGeometry>
        </mxCell>
        <mxCell id="kFYverO4tarZtgFE3sbo-77" value="" style="endArrow=none;html=1;rounded=0;entryX=0.5;entryY=1;entryDx=0;entryDy=0;exitX=0.5;exitY=0;exitDx=0;exitDy=0;" edge="1" parent="1" source="kFYverO4tarZtgFE3sbo-59" target="kFYverO4tarZtgFE3sbo-56">
          <mxGeometry width="50" height="50" relative="1" as="geometry">
            <mxPoint x="940" y="1770" as="sourcePoint" />
            <mxPoint x="990" y="1720" as="targetPoint" />
          </mxGeometry>
        </mxCell>
        <mxCell id="kFYverO4tarZtgFE3sbo-78" value="" style="endArrow=none;html=1;rounded=0;exitX=0.5;exitY=0;exitDx=0;exitDy=0;entryX=0.5;entryY=0;entryDx=0;entryDy=0;" edge="1" parent="1" source="kFYverO4tarZtgFE3sbo-67" target="kFYverO4tarZtgFE3sbo-70">
          <mxGeometry width="50" height="50" relative="1" as="geometry">
            <mxPoint x="1530" y="2000" as="sourcePoint" />
            <mxPoint x="1580" y="1950" as="targetPoint" />
            <Array as="points">
              <mxPoint x="1660" y="1950" />
              <mxPoint x="2060" y="1950" />
            </Array>
          </mxGeometry>
        </mxCell>
        <mxCell id="kFYverO4tarZtgFE3sbo-79" value="" style="endArrow=none;html=1;rounded=0;entryX=0.5;entryY=1;entryDx=0;entryDy=0;" edge="1" parent="1" target="kFYverO4tarZtgFE3sbo-62">
          <mxGeometry width="50" height="50" relative="1" as="geometry">
            <mxPoint x="1860" y="1950" as="sourcePoint" />
            <mxPoint x="1580" y="1920" as="targetPoint" />
          </mxGeometry>
        </mxCell>
        <mxCell id="kFYverO4tarZtgFE3sbo-80" value="" style="endArrow=none;html=1;rounded=0;exitX=0.5;exitY=0;exitDx=0;exitDy=0;entryX=0.5;entryY=0;entryDx=0;entryDy=0;" edge="1" parent="1" source="kFYverO4tarZtgFE3sbo-71" target="kFYverO4tarZtgFE3sbo-73">
          <mxGeometry width="50" height="50" relative="1" as="geometry">
            <mxPoint x="1650" y="2160" as="sourcePoint" />
            <mxPoint x="1700" y="2110" as="targetPoint" />
            <Array as="points">
              <mxPoint x="1785" y="2100" />
              <mxPoint x="2365" y="2100" />
            </Array>
          </mxGeometry>
        </mxCell>
        <mxCell id="kFYverO4tarZtgFE3sbo-81" value="" style="endArrow=none;html=1;rounded=0;entryX=0.5;entryY=1;entryDx=0;entryDy=0;exitX=0.5;exitY=0;exitDx=0;exitDy=0;" edge="1" parent="1" source="kFYverO4tarZtgFE3sbo-72" target="kFYverO4tarZtgFE3sbo-70">
          <mxGeometry width="50" height="50" relative="1" as="geometry">
            <mxPoint x="1900" y="2150" as="sourcePoint" />
            <mxPoint x="1950" y="2100" as="targetPoint" />
          </mxGeometry>
        </mxCell>
        <mxCell id="kFYverO4tarZtgFE3sbo-82" value="" style="endArrow=none;html=1;rounded=0;exitX=0.5;exitY=0;exitDx=0;exitDy=0;entryX=0.5;entryY=0;entryDx=0;entryDy=0;" edge="1" parent="1" source="kFYverO4tarZtgFE3sbo-61" target="kFYverO4tarZtgFE3sbo-62">
          <mxGeometry width="50" height="50" relative="1" as="geometry">
            <mxPoint x="1140" y="1970" as="sourcePoint" />
            <mxPoint x="1190" y="1920" as="targetPoint" />
            <Array as="points">
              <mxPoint x="1085" y="1770" />
              <mxPoint x="1860" y="1770" />
            </Array>
          </mxGeometry>
        </mxCell>
        <mxCell id="kFYverO4tarZtgFE3sbo-83" value="" style="endArrow=none;html=1;rounded=0;entryX=0.5;entryY=1;entryDx=0;entryDy=0;" edge="1" parent="1" target="kFYverO4tarZtgFE3sbo-57">
          <mxGeometry width="50" height="50" relative="1" as="geometry">
            <mxPoint x="1545" y="1770" as="sourcePoint" />
            <mxPoint x="1530" y="1850" as="targetPoint" />
          </mxGeometry>
        </mxCell>
        <mxCell id="kFYverO4tarZtgFE3sbo-84" value="" style="endArrow=none;html=1;rounded=0;exitX=0.5;exitY=0;exitDx=0;exitDy=0;entryX=0.5;entryY=0;entryDx=0;entryDy=0;" edge="1" parent="1" source="kFYverO4tarZtgFE3sbo-63" target="kFYverO4tarZtgFE3sbo-65">
          <mxGeometry width="50" height="50" relative="1" as="geometry">
            <mxPoint x="1020" y="1900" as="sourcePoint" />
            <mxPoint x="1070" y="1850" as="targetPoint" />
            <Array as="points">
              <mxPoint x="495" y="1940" />
              <mxPoint x="1400" y="1940" />
            </Array>
          </mxGeometry>
        </mxCell>
        <mxCell id="kFYverO4tarZtgFE3sbo-85" value="" style="endArrow=none;html=1;rounded=0;exitX=0.5;exitY=1;exitDx=0;exitDy=0;" edge="1" parent="1" source="kFYverO4tarZtgFE3sbo-61">
          <mxGeometry width="50" height="50" relative="1" as="geometry">
            <mxPoint x="1020" y="1900" as="sourcePoint" />
            <mxPoint x="1085" y="1940" as="targetPoint" />
          </mxGeometry>
        </mxCell>
        <mxCell id="kFYverO4tarZtgFE3sbo-86" value="" style="endArrow=none;html=1;rounded=0;exitX=0.5;exitY=0;exitDx=0;exitDy=0;" edge="1" parent="1" source="kFYverO4tarZtgFE3sbo-66">
          <mxGeometry width="50" height="50" relative="1" as="geometry">
            <mxPoint x="1020" y="1900" as="sourcePoint" />
            <mxPoint x="1130" y="1940" as="targetPoint" />
          </mxGeometry>
        </mxCell>
        <mxCell id="kFYverO4tarZtgFE3sbo-87" value="" style="endArrow=none;html=1;rounded=0;exitX=0.5;exitY=0;exitDx=0;exitDy=0;" edge="1" parent="1">
          <mxGeometry width="50" height="50" relative="1" as="geometry">
            <mxPoint x="814.5699999999999" y="1985" as="sourcePoint" />
            <mxPoint x="814.5699999999999" y="1940" as="targetPoint" />
          </mxGeometry>
        </mxCell>
      </root>
    </mxGraphModel>
  </diagram>
  <diagram id="eJupjWPiDXdbwRNi5G2d" name="Лист2">
    <mxGraphModel dx="3434" dy="2243" grid="1" gridSize="10" guides="1" tooltips="1" connect="1" arrows="1" fold="1" page="1" pageScale="1" pageWidth="3300" pageHeight="2339" math="0" shadow="0">
      <root>
        <mxCell id="0" />
        <mxCell id="1" parent="0" />
        <mxCell id="n8TCq_yCvxGzxcym66E1-1" value="" style="group;fontSize=14;spacingTop=1.9685;movable=0;resizable=0;rotatable=0;deletable=0;editable=0;locked=1;connectable=0;" vertex="1" connectable="0" parent="1">
          <mxGeometry x="78.74" y="17.7165" width="3212.6" height="2302.3576" as="geometry" />
        </mxCell>
        <mxCell id="n8TCq_yCvxGzxcym66E1-2" value="" style="endArrow=none;html=1;rounded=0;strokeWidth=3.1496;jumpSize=1.9685;jumpStyle=gap;endSize=0;strokeColor=default;movable=0;resizable=0;rotatable=0;deletable=0;editable=0;locked=1;connectable=0;" edge="1" parent="n8TCq_yCvxGzxcym66E1-1">
          <mxGeometry width="50" height="50" relative="1" as="geometry">
            <mxPoint as="sourcePoint" />
            <mxPoint y="2302.3576" as="targetPoint" />
          </mxGeometry>
        </mxCell>
        <mxCell id="n8TCq_yCvxGzxcym66E1-3" value="" style="endArrow=none;html=1;rounded=0;strokeWidth=3.1496;movable=0;resizable=0;rotatable=0;deletable=0;editable=0;locked=1;connectable=0;" edge="1" parent="n8TCq_yCvxGzxcym66E1-1">
          <mxGeometry width="50" height="50" relative="1" as="geometry">
            <mxPoint x="3212.592" as="sourcePoint" />
            <mxPoint x="3212.592" y="2302.3576" as="targetPoint" />
          </mxGeometry>
        </mxCell>
        <mxCell id="n8TCq_yCvxGzxcym66E1-4" value="" style="endArrow=none;html=1;rounded=0;strokeWidth=3.1496;movable=0;resizable=0;rotatable=0;deletable=0;editable=0;locked=1;connectable=0;" edge="1" parent="n8TCq_yCvxGzxcym66E1-1">
          <mxGeometry width="50" height="50" relative="1" as="geometry">
            <mxPoint y="1.5747999999999998" as="sourcePoint" />
            <mxPoint x="3212.592" y="1.5747999999999998" as="targetPoint" />
          </mxGeometry>
        </mxCell>
        <mxCell id="n8TCq_yCvxGzxcym66E1-5" value="" style="endArrow=none;html=1;rounded=0;strokeWidth=3.1496;movable=0;resizable=0;rotatable=0;deletable=0;editable=0;locked=1;connectable=0;" edge="1" parent="n8TCq_yCvxGzxcym66E1-1">
          <mxGeometry width="50" height="50" relative="1" as="geometry">
            <mxPoint y="2300.7828" as="sourcePoint" />
            <mxPoint x="3212.592" y="2300.7828" as="targetPoint" />
          </mxGeometry>
        </mxCell>
        <mxCell id="n8TCq_yCvxGzxcym66E1-6" value="" style="endArrow=none;html=1;rounded=0;strokeWidth=3.1496;startSize=0;movable=0;resizable=0;rotatable=0;deletable=0;editable=0;locked=1;connectable=0;" edge="1" parent="n8TCq_yCvxGzxcym66E1-1">
          <mxGeometry width="50" height="50" relative="1" as="geometry">
            <mxPoint x="2484.2470000000003" y="2084.2477999999996" as="sourcePoint" />
            <mxPoint x="3212.592" y="2084.2477999999996" as="targetPoint" />
          </mxGeometry>
        </mxCell>
        <mxCell id="n8TCq_yCvxGzxcym66E1-7" value="" style="endArrow=none;html=1;rounded=0;strokeWidth=3.1496;startSize=0;movable=0;resizable=0;rotatable=0;deletable=0;editable=0;locked=1;connectable=0;" edge="1" parent="n8TCq_yCvxGzxcym66E1-1">
          <mxGeometry width="50" height="50" relative="1" as="geometry">
            <mxPoint x="2484.2470000000003" y="2082.673" as="sourcePoint" />
            <mxPoint x="2484.2470000000003" y="2300.8898" as="targetPoint" />
          </mxGeometry>
        </mxCell>
        <mxCell id="n8TCq_yCvxGzxcym66E1-8" value="" style="endArrow=none;html=1;rounded=0;strokeWidth=3.1496;startSize=0;movable=0;resizable=0;rotatable=0;deletable=0;editable=0;locked=1;connectable=0;" edge="1" parent="n8TCq_yCvxGzxcym66E1-1">
          <mxGeometry width="50" height="50" relative="1" as="geometry">
            <mxPoint x="2740.152" y="2143.3028" as="sourcePoint" />
            <mxPoint x="3212.592" y="2143.3028" as="targetPoint" />
          </mxGeometry>
        </mxCell>
        <mxCell id="n8TCq_yCvxGzxcym66E1-9" value="" style="endArrow=none;html=1;rounded=0;strokeWidth=3.1496;startSize=0;movable=0;resizable=0;rotatable=0;deletable=0;editable=0;locked=1;connectable=0;" edge="1" parent="n8TCq_yCvxGzxcym66E1-1">
          <mxGeometry width="50" height="50" relative="1" as="geometry">
            <mxPoint x="2740.152" y="2084.2477999999996" as="sourcePoint" />
            <mxPoint x="2740.152" y="2300.8898" as="targetPoint" />
          </mxGeometry>
        </mxCell>
        <mxCell id="n8TCq_yCvxGzxcym66E1-10" value="" style="endArrow=none;html=1;rounded=0;strokeWidth=3.1496;startSize=0;movable=0;resizable=0;rotatable=0;deletable=0;editable=0;locked=1;connectable=0;" edge="1" parent="n8TCq_yCvxGzxcym66E1-1">
          <mxGeometry width="50" height="50" relative="1" as="geometry">
            <mxPoint x="2740.152" y="2241.7277999999997" as="sourcePoint" />
            <mxPoint x="3212.592" y="2241.7277999999997" as="targetPoint" />
          </mxGeometry>
        </mxCell>
        <mxCell id="n8TCq_yCvxGzxcym66E1-11" value="" style="endArrow=none;html=1;rounded=0;strokeWidth=3.1496;startSize=0;movable=0;resizable=0;rotatable=0;deletable=0;editable=0;locked=1;connectable=0;" edge="1" parent="n8TCq_yCvxGzxcym66E1-1">
          <mxGeometry width="50" height="50" relative="1" as="geometry">
            <mxPoint x="3015.742" y="2222.0427999999997" as="sourcePoint" />
            <mxPoint x="3212.592" y="2222.0427999999997" as="targetPoint" />
          </mxGeometry>
        </mxCell>
        <mxCell id="n8TCq_yCvxGzxcym66E1-12" value="" style="endArrow=none;html=1;rounded=0;strokeWidth=3.1496;startSize=0;movable=0;resizable=0;rotatable=0;deletable=0;editable=0;locked=1;connectable=0;" edge="1" parent="n8TCq_yCvxGzxcym66E1-1">
          <mxGeometry width="50" height="50" relative="1" as="geometry">
            <mxPoint x="3015.742" y="2162.9878" as="sourcePoint" />
            <mxPoint x="3212.592" y="2162.9878" as="targetPoint" />
          </mxGeometry>
        </mxCell>
        <mxCell id="n8TCq_yCvxGzxcym66E1-13" value="" style="endArrow=none;html=1;rounded=0;strokeWidth=3.1496;startSize=0;movable=0;resizable=0;rotatable=0;deletable=0;editable=0;locked=1;connectable=0;" edge="1" parent="n8TCq_yCvxGzxcym66E1-1">
          <mxGeometry width="50" height="50" relative="1" as="geometry">
            <mxPoint x="3015.742" y="2143.3028" as="sourcePoint" />
            <mxPoint x="3015.26" y="2301.2835" as="targetPoint" />
          </mxGeometry>
        </mxCell>
        <mxCell id="n8TCq_yCvxGzxcym66E1-14" value="" style="endArrow=none;html=1;rounded=0;strokeWidth=3.1496;startSize=0;movable=0;resizable=0;rotatable=0;deletable=0;editable=0;locked=1;connectable=0;" edge="1" parent="n8TCq_yCvxGzxcym66E1-1">
          <mxGeometry width="50" height="50" relative="1" as="geometry">
            <mxPoint x="3074.797" y="2143.3028" as="sourcePoint" />
            <mxPoint x="3074.797" y="2222.0427999999997" as="targetPoint" />
          </mxGeometry>
        </mxCell>
        <mxCell id="n8TCq_yCvxGzxcym66E1-15" value="" style="endArrow=none;html=1;rounded=0;strokeWidth=3.1496;startSize=0;movable=0;resizable=0;rotatable=0;deletable=0;editable=0;locked=1;connectable=0;" edge="1" parent="n8TCq_yCvxGzxcym66E1-1">
          <mxGeometry width="50" height="50" relative="1" as="geometry">
            <mxPoint x="3141.726" y="2143.3028" as="sourcePoint" />
            <mxPoint x="3141.726" y="2222.0427999999997" as="targetPoint" />
          </mxGeometry>
        </mxCell>
        <mxCell id="n8TCq_yCvxGzxcym66E1-16" value="" style="endArrow=none;html=1;rounded=0;strokeWidth=3.1496;startSize=0;movable=0;resizable=0;rotatable=0;deletable=0;editable=0;locked=1;connectable=0;" edge="1" parent="n8TCq_yCvxGzxcym66E1-1">
          <mxGeometry width="50" height="50" relative="1" as="geometry">
            <mxPoint x="3094.482" y="2222.0398" as="sourcePoint" />
            <mxPoint x="3094.482" y="2241.8898" as="targetPoint" />
          </mxGeometry>
        </mxCell>
        <mxCell id="n8TCq_yCvxGzxcym66E1-17" value="" style="endArrow=none;html=1;rounded=0;strokeWidth=3.1496;startSize=0;movable=0;resizable=0;rotatable=0;deletable=0;editable=0;locked=1;connectable=0;" edge="1" parent="n8TCq_yCvxGzxcym66E1-1">
          <mxGeometry width="50" height="50" relative="1" as="geometry">
            <mxPoint x="2700.782" y="2084.2447999999995" as="sourcePoint" />
            <mxPoint x="2700.782" y="2300.8867999999998" as="targetPoint" />
          </mxGeometry>
        </mxCell>
        <mxCell id="n8TCq_yCvxGzxcym66E1-18" value="" style="endArrow=none;html=1;rounded=0;strokeWidth=3.1496;startSize=0;movable=0;resizable=0;rotatable=0;deletable=0;editable=0;locked=1;connectable=0;" edge="1" parent="n8TCq_yCvxGzxcym66E1-1">
          <mxGeometry width="50" height="50" relative="1" as="geometry">
            <mxPoint x="2641.7270000000003" y="2084.2517999999995" as="sourcePoint" />
            <mxPoint x="2641.7270000000003" y="2300.8938" as="targetPoint" />
          </mxGeometry>
        </mxCell>
        <mxCell id="n8TCq_yCvxGzxcym66E1-19" value="" style="endArrow=none;html=1;rounded=0;strokeWidth=3.1496;startSize=0;movable=0;resizable=0;rotatable=0;deletable=0;editable=0;locked=1;connectable=0;" edge="1" parent="n8TCq_yCvxGzxcym66E1-1">
          <mxGeometry width="50" height="50" relative="1" as="geometry">
            <mxPoint x="2551.176" y="2084.2487999999994" as="sourcePoint" />
            <mxPoint x="2551.176" y="2300.8907999999997" as="targetPoint" />
          </mxGeometry>
        </mxCell>
        <mxCell id="n8TCq_yCvxGzxcym66E1-20" value="" style="endArrow=none;html=1;rounded=0;strokeWidth=3.1496;startSize=0;movable=0;resizable=0;rotatable=0;deletable=0;editable=0;locked=1;connectable=0;" edge="1" parent="n8TCq_yCvxGzxcym66E1-1">
          <mxGeometry width="50" height="50" relative="1" as="geometry">
            <mxPoint x="2511.806" y="2084.2457999999992" as="sourcePoint" />
            <mxPoint x="2511.806" y="2182.6728" as="targetPoint" />
          </mxGeometry>
        </mxCell>
        <mxCell id="n8TCq_yCvxGzxcym66E1-21" value="" style="endArrow=none;html=1;rounded=0;strokeWidth=3.1496;startSize=0;movable=0;resizable=0;rotatable=0;deletable=0;editable=0;locked=1;connectable=0;" edge="1" parent="n8TCq_yCvxGzxcym66E1-1">
          <mxGeometry width="50" height="50" relative="1" as="geometry">
            <mxPoint x="2484.249" y="2182.6728" as="sourcePoint" />
            <mxPoint x="2740.26" y="2182.6728" as="targetPoint" />
          </mxGeometry>
        </mxCell>
        <mxCell id="n8TCq_yCvxGzxcym66E1-22" value="" style="endArrow=none;html=1;rounded=0;strokeWidth=3.1496;startSize=0;movable=0;resizable=0;rotatable=0;deletable=0;editable=0;locked=1;connectable=0;" edge="1" parent="n8TCq_yCvxGzxcym66E1-1">
          <mxGeometry width="50" height="50" relative="1" as="geometry">
            <mxPoint x="2484.2459999999996" y="2162.9878" as="sourcePoint" />
            <mxPoint x="2740.257" y="2162.9878" as="targetPoint" />
          </mxGeometry>
        </mxCell>
        <mxCell id="n8TCq_yCvxGzxcym66E1-23" value="" style="endArrow=none;html=1;rounded=0;strokeWidth=1.1810999999999998;startSize=0;movable=0;resizable=0;rotatable=0;deletable=0;editable=0;locked=1;connectable=0;" edge="1" parent="n8TCq_yCvxGzxcym66E1-1">
          <mxGeometry width="50" height="50" relative="1" as="geometry">
            <mxPoint x="2484.2429999999995" y="2103.9328" as="sourcePoint" />
            <mxPoint x="2740.254" y="2103.9328" as="targetPoint" />
          </mxGeometry>
        </mxCell>
        <mxCell id="n8TCq_yCvxGzxcym66E1-24" value="" style="endArrow=none;html=1;rounded=0;strokeWidth=1.1810999999999998;startSize=0;movable=0;resizable=0;rotatable=0;deletable=0;editable=0;locked=1;connectable=0;" edge="1" parent="n8TCq_yCvxGzxcym66E1-1">
          <mxGeometry width="50" height="50" relative="1" as="geometry">
            <mxPoint x="2484.2470000000003" y="2123.6178" as="sourcePoint" />
            <mxPoint x="2740.152" y="2123.6178" as="targetPoint" />
          </mxGeometry>
        </mxCell>
        <mxCell id="n8TCq_yCvxGzxcym66E1-25" value="" style="endArrow=none;html=1;rounded=0;strokeWidth=1.1810999999999998;startSize=0;movable=0;resizable=0;rotatable=0;deletable=0;editable=0;locked=1;connectable=0;" edge="1" parent="n8TCq_yCvxGzxcym66E1-1">
          <mxGeometry width="50" height="50" relative="1" as="geometry">
            <mxPoint x="2484.2470000000003" y="2143.3028" as="sourcePoint" />
            <mxPoint x="2740.152" y="2143.3028" as="targetPoint" />
          </mxGeometry>
        </mxCell>
        <mxCell id="n8TCq_yCvxGzxcym66E1-26" value="" style="endArrow=none;html=1;rounded=0;strokeWidth=1.1810999999999998;startSize=0;movable=0;resizable=0;rotatable=0;deletable=0;editable=0;locked=1;connectable=0;" edge="1" parent="n8TCq_yCvxGzxcym66E1-1">
          <mxGeometry width="50" height="50" relative="1" as="geometry">
            <mxPoint x="2484.244" y="2202.3597999999997" as="sourcePoint" />
            <mxPoint x="2740.149" y="2202.3597999999997" as="targetPoint" />
          </mxGeometry>
        </mxCell>
        <mxCell id="n8TCq_yCvxGzxcym66E1-27" value="" style="endArrow=none;html=1;rounded=0;strokeWidth=1.1810999999999998;startSize=0;movable=0;resizable=0;rotatable=0;deletable=0;editable=0;locked=1;connectable=0;" edge="1" parent="n8TCq_yCvxGzxcym66E1-1">
          <mxGeometry width="50" height="50" relative="1" as="geometry">
            <mxPoint x="2484.251" y="2222.0467999999996" as="sourcePoint" />
            <mxPoint x="2740.156" y="2222.0467999999996" as="targetPoint" />
          </mxGeometry>
        </mxCell>
        <mxCell id="n8TCq_yCvxGzxcym66E1-28" value="" style="endArrow=none;html=1;rounded=0;strokeWidth=1.1810999999999998;startSize=0;movable=0;resizable=0;rotatable=0;deletable=0;editable=0;locked=1;connectable=0;" edge="1" parent="n8TCq_yCvxGzxcym66E1-1">
          <mxGeometry width="50" height="50" relative="1" as="geometry">
            <mxPoint x="2484.248" y="2241.7237999999993" as="sourcePoint" />
            <mxPoint x="2740.153" y="2241.7237999999993" as="targetPoint" />
          </mxGeometry>
        </mxCell>
        <mxCell id="n8TCq_yCvxGzxcym66E1-29" value="" style="endArrow=none;html=1;rounded=0;strokeWidth=1.1810999999999998;startSize=0;movable=0;resizable=0;rotatable=0;deletable=0;editable=0;locked=1;connectable=0;" edge="1" parent="n8TCq_yCvxGzxcym66E1-1">
          <mxGeometry width="50" height="50" relative="1" as="geometry">
            <mxPoint x="2484.245" y="2261.410799999999" as="sourcePoint" />
            <mxPoint x="2740.1499999999996" y="2261.410799999999" as="targetPoint" />
          </mxGeometry>
        </mxCell>
        <mxCell id="n8TCq_yCvxGzxcym66E1-30" value="" style="endArrow=none;html=1;rounded=0;strokeWidth=1.1810999999999998;startSize=0;movable=0;resizable=0;rotatable=0;deletable=0;editable=0;locked=1;connectable=0;" edge="1" parent="n8TCq_yCvxGzxcym66E1-1">
          <mxGeometry width="50" height="50" relative="1" as="geometry">
            <mxPoint x="2484.252" y="2281.097799999999" as="sourcePoint" />
            <mxPoint x="2740.1569999999997" y="2281.097799999999" as="targetPoint" />
          </mxGeometry>
        </mxCell>
        <mxCell id="n8TCq_yCvxGzxcym66E1-31" value="" style="endArrow=none;html=1;rounded=0;strokeWidth=1.1810999999999998;startSize=0;movable=0;resizable=0;rotatable=0;deletable=0;editable=0;locked=1;connectable=0;" edge="1" parent="n8TCq_yCvxGzxcym66E1-1">
          <mxGeometry width="50" height="50" relative="1" as="geometry">
            <mxPoint x="3035.26" y="2162.8898" as="sourcePoint" />
            <mxPoint x="3035.427" y="2221.8898" as="targetPoint" />
          </mxGeometry>
        </mxCell>
        <mxCell id="n8TCq_yCvxGzxcym66E1-32" value="" style="endArrow=none;html=1;rounded=0;strokeWidth=1.1810999999999998;startSize=0;movable=0;resizable=0;rotatable=0;deletable=0;editable=0;locked=1;connectable=0;" edge="1" parent="n8TCq_yCvxGzxcym66E1-1">
          <mxGeometry width="50" height="50" relative="1" as="geometry">
            <mxPoint x="3055.26" y="2162.8898" as="sourcePoint" />
            <mxPoint x="3055.114" y="2222.3068" as="targetPoint" />
          </mxGeometry>
        </mxCell>
        <mxCell id="n8TCq_yCvxGzxcym66E1-33" value="&lt;font style=&quot;font-size: 14px;&quot; face=&quot;GOST type A&quot;&gt;&lt;i style=&quot;&quot;&gt;Изм.&lt;/i&gt;&lt;/font&gt;" style="text;html=1;align=center;verticalAlign=middle;whiteSpace=wrap;rounded=0;movable=0;resizable=0;rotatable=0;deletable=0;editable=0;locked=1;connectable=0;" vertex="1" parent="n8TCq_yCvxGzxcym66E1-1">
          <mxGeometry x="2484.25" y="2163.3815" width="27.56" height="18.11" as="geometry" />
        </mxCell>
        <mxCell id="n8TCq_yCvxGzxcym66E1-34" value="&lt;font face=&quot;GOST type A&quot;&gt;&lt;i&gt;Лист&lt;/i&gt;&lt;/font&gt;" style="text;html=1;align=center;verticalAlign=middle;whiteSpace=wrap;rounded=0;fontSize=14;movable=0;resizable=0;rotatable=0;deletable=0;editable=0;locked=1;connectable=0;" vertex="1" parent="n8TCq_yCvxGzxcym66E1-1">
          <mxGeometry x="2511.81" y="2162.99" width="39.37" height="18.11" as="geometry" />
        </mxCell>
        <mxCell id="n8TCq_yCvxGzxcym66E1-35" value="&lt;i&gt;&lt;font face=&quot;GOST type A&quot;&gt;&amp;nbsp;№ докум.&lt;/font&gt;&lt;/i&gt;" style="text;html=1;align=left;verticalAlign=middle;whiteSpace=wrap;rounded=0;fontSize=14;movable=0;resizable=0;rotatable=0;deletable=0;editable=0;locked=1;connectable=0;" vertex="1" parent="n8TCq_yCvxGzxcym66E1-1">
          <mxGeometry x="2551.18" y="2162.99" width="90.55" height="18.11" as="geometry" />
        </mxCell>
        <mxCell id="n8TCq_yCvxGzxcym66E1-36" value="&lt;font face=&quot;GOST type A&quot;&gt;&lt;i&gt;Подпись&lt;/i&gt;&lt;/font&gt;" style="text;html=1;align=center;verticalAlign=middle;whiteSpace=wrap;rounded=0;fontSize=14;movable=0;resizable=0;rotatable=0;deletable=0;editable=0;locked=1;connectable=0;" vertex="1" parent="n8TCq_yCvxGzxcym66E1-1">
          <mxGeometry x="2641.73" y="2162.99" width="59.05" height="18.11" as="geometry" />
        </mxCell>
        <mxCell id="n8TCq_yCvxGzxcym66E1-37" value="&lt;font face=&quot;GOST type A&quot;&gt;&lt;i&gt;Дата&lt;/i&gt;&lt;/font&gt;" style="text;html=1;align=center;verticalAlign=middle;whiteSpace=wrap;rounded=0;fontSize=14;movable=0;resizable=0;rotatable=0;deletable=0;editable=0;locked=1;connectable=0;" vertex="1" parent="n8TCq_yCvxGzxcym66E1-1">
          <mxGeometry x="2700.78" y="2162.99" width="39.38" height="18.11" as="geometry" />
        </mxCell>
        <mxCell id="n8TCq_yCvxGzxcym66E1-38" value="&lt;font face=&quot;GOST type A&quot;&gt;&lt;i&gt;Разработ.&lt;/i&gt;&lt;/font&gt;&lt;span style=&quot;color: rgba(0, 0, 0, 0); font-family: monospace; font-size: 0px; text-align: start; text-wrap-mode: nowrap;&quot;&gt;%3CmxGraphModel%3E%3Croot%3E%3CmxCell%20id%3D%220%22%2F%3E%3CmxCell%20id%3D%221%22%20parent%3D%220%22%2F%3E%3CmxCell%20id%3D%222%22%20value%3D%22%26lt%3Bfont%20face%3D%26quot%3BGOST%20type%20A%26quot%3B%26gt%3B%26lt%3Bi%26gt%3B%D0%9B%D0%B8%D1%81%D1%82%26lt%3B%2Fi%26gt%3B%26lt%3B%2Ffont%26gt%3B%22%20style%3D%22text%3Bhtml%3D1%3Balign%3Dcenter%3BverticalAlign%3Dmiddle%3BwhiteSpace%3Dwrap%3Brounded%3D0%3BfontSize%3D14%3B%22%20vertex%3D%221%22%20parent%3D%221%22%3E%3CmxGeometry%20x%3D%222590.5499999999997%22%20y%3D%222180.7065%22%20width%3D%2239.37%22%20height%3D%2218.11%22%20as%3D%22geometry%22%2F%3E%3C%2FmxCell%3E%3C%2Froot%3E%3C%2FmxGraphModel%3E&lt;/span&gt;" style="text;html=1;align=center;verticalAlign=middle;whiteSpace=wrap;rounded=0;fontSize=14;movable=0;resizable=0;rotatable=0;deletable=0;editable=0;locked=1;connectable=0;" vertex="1" parent="n8TCq_yCvxGzxcym66E1-1">
          <mxGeometry x="2484.25" y="2183.07" width="66.93" height="18.11" as="geometry" />
        </mxCell>
        <mxCell id="n8TCq_yCvxGzxcym66E1-39" value="&lt;font face=&quot;GOST type A&quot;&gt;&lt;i&gt;Проверил&lt;/i&gt;&lt;/font&gt;" style="text;html=1;align=center;verticalAlign=middle;whiteSpace=wrap;rounded=0;fontSize=14;movable=0;resizable=0;rotatable=0;deletable=0;editable=0;locked=1;connectable=0;" vertex="1" parent="n8TCq_yCvxGzxcym66E1-1">
          <mxGeometry x="2484.247" y="2202.747" width="66.93" height="18.11" as="geometry" />
        </mxCell>
        <mxCell id="n8TCq_yCvxGzxcym66E1-40" value="&lt;font face=&quot;GOST type A&quot;&gt;&lt;i&gt;Н. контр.&lt;/i&gt;&lt;/font&gt;" style="text;html=1;align=center;verticalAlign=middle;whiteSpace=wrap;rounded=0;fontSize=14;movable=0;resizable=0;rotatable=0;deletable=0;editable=0;locked=1;connectable=0;" vertex="1" parent="n8TCq_yCvxGzxcym66E1-1">
          <mxGeometry x="2484.2439999999997" y="2222.4339999999997" width="66.93" height="18.11" as="geometry" />
        </mxCell>
        <mxCell id="n8TCq_yCvxGzxcym66E1-41" value="&lt;font face=&quot;GOST type A&quot;&gt;&lt;i&gt;Лит.&lt;/i&gt;&lt;/font&gt;" style="text;html=1;align=center;verticalAlign=middle;whiteSpace=wrap;rounded=0;fontSize=14;movable=0;resizable=0;rotatable=0;deletable=0;editable=0;locked=1;connectable=0;" vertex="1" parent="n8TCq_yCvxGzxcym66E1-1">
          <mxGeometry x="3015.74" y="2144.88" width="59.06" height="18.11" as="geometry" />
        </mxCell>
        <mxCell id="n8TCq_yCvxGzxcym66E1-42" value="&lt;font face=&quot;GOST type A&quot;&gt;&lt;i&gt;Масса&lt;/i&gt;&lt;/font&gt;" style="text;html=1;align=center;verticalAlign=middle;whiteSpace=wrap;rounded=0;fontSize=14;movable=0;resizable=0;rotatable=0;deletable=0;editable=0;locked=1;connectable=0;" vertex="1" parent="n8TCq_yCvxGzxcym66E1-1">
          <mxGeometry x="3074.8" y="2144.88" width="66.93" height="18.11" as="geometry" />
        </mxCell>
        <mxCell id="n8TCq_yCvxGzxcym66E1-43" value="&lt;font face=&quot;GOST type A&quot;&gt;&lt;i&gt;Масштаб&lt;/i&gt;&lt;/font&gt;" style="text;html=1;align=center;verticalAlign=middle;whiteSpace=wrap;rounded=0;fontSize=14;movable=0;resizable=0;rotatable=0;deletable=0;editable=0;locked=1;connectable=0;" vertex="1" parent="n8TCq_yCvxGzxcym66E1-1">
          <mxGeometry x="3141.73" y="2144.88" width="70.86" height="18.11" as="geometry" />
        </mxCell>
        <mxCell id="n8TCq_yCvxGzxcym66E1-44" value="&lt;font style=&quot;font-size: 25px;&quot; face=&quot;GOST type A&quot;&gt;&lt;i style=&quot;&quot;&gt;1:1&lt;/i&gt;&lt;/font&gt;" style="text;html=1;align=center;verticalAlign=middle;whiteSpace=wrap;rounded=0;fontSize=14;spacingTop=1.9685;spacingRight=1.9685;spacingLeft=-1.9685;movable=0;resizable=0;rotatable=0;deletable=0;editable=0;locked=1;connectable=0;" vertex="1" parent="n8TCq_yCvxGzxcym66E1-1">
          <mxGeometry x="3141.73" y="2162.99" width="70.86" height="57.48" as="geometry" />
        </mxCell>
        <mxCell id="n8TCq_yCvxGzxcym66E1-45" value="&lt;font face=&quot;GOST type A&quot;&gt;&lt;i&gt;Лист&lt;/i&gt;&lt;/font&gt;" style="text;html=1;align=right;verticalAlign=middle;whiteSpace=wrap;rounded=0;fontSize=14;movable=0;resizable=0;rotatable=0;deletable=0;editable=0;locked=1;connectable=0;" vertex="1" parent="n8TCq_yCvxGzxcym66E1-1">
          <mxGeometry x="3015.74" y="2222.44" width="43.31" height="18.11" as="geometry" />
        </mxCell>
        <mxCell id="n8TCq_yCvxGzxcym66E1-46" value="&lt;font face=&quot;GOST type A&quot;&gt;&lt;i&gt;1&lt;/i&gt;&lt;/font&gt;" style="text;html=1;align=left;verticalAlign=middle;whiteSpace=wrap;rounded=0;fontSize=14;spacingTop=1.9685;movable=0;resizable=0;rotatable=0;deletable=0;editable=0;locked=1;connectable=0;" vertex="1" parent="n8TCq_yCvxGzxcym66E1-1">
          <mxGeometry x="3059.05" y="2222.44" width="35.44" height="18.11" as="geometry" />
        </mxCell>
        <mxCell id="n8TCq_yCvxGzxcym66E1-47" value="&lt;font face=&quot;GOST type A&quot;&gt;&lt;i&gt;Листов 10&lt;/i&gt;&lt;/font&gt;" style="text;html=1;align=center;verticalAlign=middle;whiteSpace=wrap;rounded=0;fontSize=14;spacingTop=1.9685;movable=0;resizable=0;rotatable=0;deletable=0;editable=0;locked=1;connectable=0;" vertex="1" parent="n8TCq_yCvxGzxcym66E1-1">
          <mxGeometry x="3094.49" y="2222.44" width="118.11" height="18.11" as="geometry" />
        </mxCell>
        <mxCell id="n8TCq_yCvxGzxcym66E1-48" value="&lt;font style=&quot;font-size: 18px;&quot; face=&quot;GOST type A&quot;&gt;&lt;i style=&quot;&quot;&gt;МГТУ им. Н.Э. Баумана&lt;/i&gt;&lt;/font&gt;&lt;div&gt;&lt;font style=&quot;font-size: 18px;&quot; face=&quot;GOST type A&quot;&gt;&lt;i style=&quot;&quot;&gt;кафедра ИУ6&lt;/i&gt;&lt;/font&gt;&lt;/div&gt;" style="text;html=1;align=center;verticalAlign=middle;whiteSpace=wrap;rounded=0;fontSize=14;spacingTop=1.9685;movable=0;resizable=0;rotatable=0;deletable=0;editable=0;locked=1;connectable=0;" vertex="1" parent="n8TCq_yCvxGzxcym66E1-1">
          <mxGeometry x="3015.74" y="2242.12" width="196.86" height="57.09" as="geometry" />
        </mxCell>
        <mxCell id="n8TCq_yCvxGzxcym66E1-49" value="&lt;font face=&quot;GOST type A&quot;&gt;&lt;i&gt;Насибуллин Д.И.&lt;/i&gt;&lt;/font&gt;" style="text;html=1;align=center;verticalAlign=middle;whiteSpace=wrap;rounded=0;fontSize=14;movable=0;resizable=0;rotatable=0;deletable=0;editable=0;locked=1;connectable=0;" vertex="1" parent="n8TCq_yCvxGzxcym66E1-1">
          <mxGeometry x="2551.18" y="2183.07" width="90.55" height="18.11" as="geometry" />
        </mxCell>
        <mxCell id="n8TCq_yCvxGzxcym66E1-50" value="&lt;font face=&quot;GOST type A&quot;&gt;&lt;i&gt;Гуренко В.В.&lt;/i&gt;&lt;/font&gt;" style="text;html=1;align=center;verticalAlign=middle;whiteSpace=wrap;rounded=0;fontSize=14;movable=0;resizable=0;rotatable=0;deletable=0;editable=0;locked=1;connectable=0;" vertex="1" parent="n8TCq_yCvxGzxcym66E1-1">
          <mxGeometry x="2551.1769999999997" y="2202.747" width="90.55" height="18.11" as="geometry" />
        </mxCell>
        <mxCell id="k4Qga3eHPMn5XEmoeG9K-1" value="Схема работы гибридной модели машинного обучения" style="text;html=1;align=center;verticalAlign=middle;whiteSpace=wrap;rounded=0;fontFamily=GOST type A;fontSize=80;fontStyle=2" vertex="1" parent="1">
          <mxGeometry x="140" y="80" width="1570" height="110" as="geometry" />
        </mxCell>
        <mxCell id="k4Qga3eHPMn5XEmoeG9K-2" value="Классификация документов" style="text;html=1;align=center;verticalAlign=middle;whiteSpace=wrap;rounded=0;fontFamily=GOST type A;fontSize=80;fontStyle=2" vertex="1" parent="1">
          <mxGeometry x="2090" y="80" width="930" height="110" as="geometry" />
        </mxCell>
        <mxCell id="k4Qga3eHPMn5XEmoeG9K-3" value="Именованное распознавания сущностей" style="text;html=1;align=center;verticalAlign=middle;whiteSpace=wrap;rounded=0;fontFamily=GOST type A;fontSize=80;fontStyle=2" vertex="1" parent="1">
          <mxGeometry x="2060" y="1000" width="1130" height="110" as="geometry" />
        </mxCell>
      </root>
    </mxGraphModel>
  </diagram>
</mxfile>
